<?xml version="1.0" encoding="utf-8"?>
<!-- Generator: Adobe Illustrator 24.1.2, SVG Export Plug-In . SVG Version: 6.00 Build 0)  -->
<svg version="1.1" xmlns="http://www.w3.org/2000/svg" xmlns:xlink="http://www.w3.org/1999/xlink" x="0px" y="0px"
	 viewBox="0 0 612 136" style="enable-background:new 0 0 612 136;" xml:space="preserve">
<style type="text/css">
	.st0{display:none;}
	.st1{display:inline;stroke:#FFFFFF;stroke-miterlimit:10;}
	.st2{fill:url(#SVGID_1_);}
	.st3{display:none;fill:#FFFFFF;}
	.st4{fill:#FFFFFF;}
</style>
<g id="Layer_2" class="st0">
	<rect x="-94" y="-41" class="st1" width="835" height="258"/>
</g>
<g id="Layer_1">
	
		<linearGradient id="SVGID_1_" gradientUnits="userSpaceOnUse" x1="185.7994" y1="-214.0566" x2="1539.7689" y2="-214.0566" gradientTransform="matrix(0.3998 0 0 0.3998 -25.5086 196.6938)">
		<stop  offset="0.35" style="stop-color:#FFFFFF"/>
		<stop  offset="0.42" style="stop-color:#B3B5B8"/>
		<stop  offset="0.5" style="stop-color:#FFFFFF"/>
	</linearGradient>
	<rect x="48.8" y="108" class="st2" width="541.3" height="6.2"/>
	<g>
		<path class="st3" d="M13.3,126.5c-4.7,0-8.1-0.8-10.2-2.4C1,122.5,0,120.4,0,117.8c0-2.3,0.8-4.2,2.5-5.6c1.7-1.4,3.6-2.1,5.8-2.1
			s4.3,0.6,6.1,1.7c1.8,1.1,3.2,2.9,4.2,5.3l1.2,2.7c0.6,0.9,1.3,1.2,2,0.9c0.8-0.3,1.2-1.6,1.2-3.9V49.9c0-1.9-0.4-3.3-1.3-4.2
			c-0.9-0.9-2.1-1.5-3.8-1.8l-1.9-0.2v-1.2l23.3-7.4l1.5,1.2L40.5,54v34.6c0,5.4-0.2,9.9-0.7,13.6c-0.4,3.6-1.2,6.8-2.4,9.3
			c-1.1,2.5-2.7,4.9-4.8,7c-2.9,2.9-6,5-9.5,6.2C19.9,125.9,16.6,126.5,13.3,126.5z M31.7,28.5c-2.8,0-5.2-0.9-7.1-2.7
			c-1.9-1.8-2.9-4-2.9-6.8c0-2.8,1-5.1,2.9-6.8c1.9-1.8,4.3-2.6,7.1-2.6c2.8,0,5.2,0.9,7.2,2.6c2,1.8,2.9,4,2.9,6.8
			c0,2.7-1,5-2.9,6.8C36.9,27.6,34.5,28.5,31.7,28.5z"/>
		<path class="st3" d="M68.2,98.5c-4.8,0-8.9-1.4-12.1-4.1c-3.3-2.7-4.9-6.7-4.9-11.8c0-3.9,2-7.5,6-10.8c4-3.3,10.2-5.8,18.8-7.4
			c1.3-0.2,2.8-0.5,4.5-0.8c1.6-0.3,3.4-0.6,5.2-0.9v-9.8c0-5.6-0.7-9.6-2-11.9s-3.5-3.4-6.4-3.4c-2,0-3.6,0.6-4.7,1.9
			c-1.2,1.3-1.9,3.5-2.2,6.7L70,47.5c-0.2,3.6-1,6.2-2.6,7.8c-1.6,1.7-3.5,2.5-5.8,2.5c-2.2,0-4-0.7-5.4-2s-2.1-3.1-2.1-5.4
			c0-3.4,1.2-6.3,3.6-8.6s5.5-4.1,9.4-5.2s8.1-1.8,12.7-1.8c7.4,0,13.1,1.8,17.1,5.4s6,9.5,6,17.6v27.5c0,3.7,1.8,5.6,5.2,5.6h2.7
			l1.1,1c-1.6,2-3.3,3.5-5.2,4.6s-4.5,1.6-7.9,1.6c-3.6,0-6.5-0.8-8.6-2.6c-2.1-1.7-3.5-4-4.2-6.8c-2.5,2.6-5,4.9-7.6,6.8
			C75.7,97.6,72.3,98.5,68.2,98.5z M75.8,90.9c1.6,0,3.2-0.4,4.7-1.2c1.4-0.8,3.2-2,5.2-3.7V65.1c-0.8,0.2-1.7,0.3-2.5,0.5
			c-0.8,0.2-1.8,0.3-2.9,0.5c-3.8,1-6.9,2.7-9.2,5c-2.3,2.4-3.4,5.6-3.4,9.5c0,3.4,0.8,6,2.4,7.6C71.6,90.1,73.6,90.9,75.8,90.9z"/>
		<path class="st3" d="M145.4,98.5c-5.6,0-10.8-1.2-15.4-3.7c-4.6-2.4-8.3-6-11-10.7c-2.7-4.7-4-10.4-4-17.2
			c0-6.7,1.5-12.5,4.4-17.2c3-4.8,6.9-8.4,11.8-11c4.9-2.5,10.4-3.8,16.2-3.8c4.8,0,8.9,0.8,12.2,2.4c3.3,1.6,5.8,3.6,7.6,6.2
			c1.8,2.5,2.6,5.2,2.6,7.9c0,2.3-0.7,4.1-2.1,5.4s-3.2,1.9-5.5,1.9c-2.4,0-4.4-0.9-5.8-2.6c-1.5-1.8-2.4-4-2.6-6.8
			c-0.1-1.8,0-3.4,0.1-4.7c0.2-1.3,0.2-2.6,0-3.9c-0.3-1.4-0.8-2.4-1.6-2.8c-0.7-0.4-1.7-0.7-2.9-0.7c-5.1,0-9,2.2-11.8,6.6
			c-2.8,4.4-4.2,11.4-4.2,21c0,8.4,1.6,14.8,4.7,19.2c3.1,4.4,7.9,6.7,14.4,6.7c3.9,0,7-0.7,9.5-2.1c2.4-1.4,4.7-3.5,7-6.4l1.2,1
			c-2.1,4.9-5.3,8.7-9.6,11.3C156.3,97.2,151.2,98.5,145.4,98.5z"/>
		<path class="st3" d="M173.6,96.7v-1.2l1.9-0.6c2.8-0.9,4.2-3,4.2-6.1V22.1c0-1.6-0.3-2.9-1-3.7c-0.7-0.8-1.8-1.5-3.5-2l-1.6-0.4
			v-1.2l22.8-5.4l1.5,1.1L197.5,28v60.7c0,3.3,1.4,5.4,4.1,6.2l1.8,0.5v1.2L173.6,96.7L173.6,96.7L173.6,96.7z M219.8,96.7
			l-22.3-31.1l23.1-21.3c1.1-1,1.7-2,1.9-3.2c0.2-1.1-0.5-1.9-2.2-2.4l-2.1-0.6v-1.2h18.6V38l-3.7,1c-1.8,0.6-3.3,1.3-4.4,2
			c-1.1,0.8-2.5,1.9-4,3.3l-14.1,13.2L233,88.4c1.4,1.8,2.7,3.2,3.8,4.2c1.1,1,2.6,1.8,4.4,2.5l0.5,0.2v1.2L219.8,96.7L219.8,96.7
			L219.8,96.7z"/>
		<path class="st4" d="M300,75.1c-5.7,0-10.6-1-14.6-2.9v4.2c0,2.6,1.3,4.1,3.8,4.6l23.4,4.4c3.9,0.8,7.4,1.7,10.6,2.9
			c3.2,1.2,5.7,2.9,7.6,5.1c1.9,2.2,2.9,5.2,2.9,9c0,4.1-1.3,7.8-4,11.3c-2.6,3.4-6.6,6.2-11.8,8.4s-11.6,3.2-19.4,3.2
			c-6.6,0-11.9-0.7-15.8-2c-3.9-1.4-6.7-3.1-8.3-5.3c-1.6-2.2-2.4-4.4-2.4-6.8c0-3,1-6,3-9c2-3,4.6-5.4,7.5-7.3
			c-2.6-1-4.4-2.3-5.6-3.8c-1.2-1.6-1.8-3.3-1.8-5.1c0-1.6,0.4-3.2,1.3-4.7c0.9-1.4,1.9-2.9,3.2-4.4l4.1-5.2c-6-3.5-9.1-9-9.1-16.4
			c0-6,2.1-10.8,6.4-14.6c4.3-3.7,10.6-5.6,18.9-5.6c4.2,0,8,0.5,11.2,1.5s5.8,2.4,7.9,4.2c2.6-0.4,5.2-1.1,7.5-2
			c2.4-1,4.5-2.3,6.4-3.9l1.8,1.2v6.4h-14.1c3,3.3,4.5,7.6,4.5,12.8c0,5.8-2.1,10.6-6.4,14.4C314.6,73.3,308.3,75.1,300,75.1z
			 M281.4,107.1c0,4.9,1.5,8.6,4.6,11.1c3,2.5,7.8,3.7,14.4,3.7c6.9,0,12.1-1.1,15.6-3.4c3.5-2.2,5.2-5.4,5.2-9.5
			c0-2.3-0.8-4.2-2.6-5.6c-1.7-1.4-4.6-2.5-8.6-3.2L287.4,96c-0.7-0.2-1.3-0.3-2-0.5c-1.2,1.6-2.1,3.6-2.9,5.7
			S281.4,105.3,281.4,107.1z M299.9,72.7c3.3,0,5.8-1.4,7.3-4.1c1.5-2.7,2.3-7.3,2.3-13.7c0-6.4-0.8-10.9-2.3-13.5
			c-1.5-2.6-3.9-3.9-7-3.9c-3.1,0-5.4,1.4-7,4c-1.6,2.7-2.4,7.2-2.4,13.6c0,6.4,0.7,10.9,2.2,13.6C294.4,71.3,296.7,72.7,299.9,72.7
			z"/>
		<path class="st3" d="M339,96.7v-1.2l1.9-0.5c1.6-0.5,2.8-1.2,3.4-2.2s0.9-2.3,0.9-3.8V49.9c0-1.8-0.3-3.2-0.9-4s-1.8-1.5-3.4-1.8
			l-1.9-0.5v-1.2l21.4-7.2l1.2,1.2l1.1,10.7v1c1.2-2.3,2.7-4.5,4.6-6.4c1.9-2,4-3.6,6.2-4.8c2.3-1.2,4.6-1.9,6.8-1.9
			c3.2,0,5.6,0.9,7.2,2.6c1.6,1.8,2.5,4,2.5,6.6c0,2.8-0.8,5-2.4,6.5c-1.6,1.5-3.6,2.3-5.8,2.3c-3.5,0-6.6-1.8-9.2-5.2l-0.2-0.2
			c-0.8-1.2-1.8-1.8-2.9-1.9c-1.1-0.1-2.1,0.4-3,1.6c-0.8,0.8-1.5,1.6-2,2.7c-0.6,1-1,2.2-1.6,3.6v34.7c0,3.3,1.4,5.4,4.4,6.2l4,1.1
			v1.2L339,96.7L339,96.7z"/>
		<path class="st3" d="M409.4,98.5c-4.8,0-8.9-1.4-12.1-4.1c-3.3-2.7-4.9-6.7-4.9-11.8c0-3.9,2-7.5,6-10.8c4-3.3,10.2-5.8,18.8-7.4
			c1.3-0.2,2.8-0.5,4.5-0.8c1.6-0.3,3.4-0.6,5.2-0.9v-9.8c0-5.6-0.7-9.6-2-11.9c-1.4-2.3-3.5-3.4-6.4-3.4c-2,0-3.6,0.6-4.7,1.9
			c-1.2,1.3-1.9,3.5-2.2,6.7l-0.2,1.4c-0.2,3.6-1,6.2-2.6,7.8c-1.6,1.7-3.5,2.5-5.8,2.5c-2.2,0-4-0.7-5.4-2
			c-1.4-1.3-2.1-3.1-2.1-5.4c0-3.4,1.2-6.3,3.6-8.6s5.5-4.1,9.4-5.2s8.1-1.8,12.7-1.8c7.4,0,13.1,1.8,17.1,5.4s6,9.5,6,17.6v27.5
			c0,3.7,1.8,5.6,5.2,5.6h2.7l1.1,1c-1.6,2-3.3,3.5-5.2,4.6s-4.5,1.6-7.9,1.6c-3.6,0-6.5-0.8-8.6-2.6c-2.1-1.7-3.5-4-4.2-6.8
			c-2.5,2.6-5,4.9-7.6,6.8C416.9,97.6,413.5,98.5,409.4,98.5z M417,90.9c1.6,0,3.2-0.4,4.7-1.2c1.4-0.8,3.2-2,5.2-3.7V65.1
			c-0.8,0.2-1.7,0.3-2.5,0.5c-0.8,0.2-1.8,0.3-2.9,0.5c-3.8,1-6.9,2.7-9.2,5c-2.3,2.4-3.4,5.6-3.4,9.5c0,3.4,0.8,6,2.4,7.6
			C412.9,90.1,414.7,90.9,417,90.9z"/>
		<path class="st3" d="M486.5,98.5c-5.6,0-10.8-1.2-15.4-3.7s-8.3-6-11-10.7c-2.7-4.7-4-10.4-4-17.2c0-6.7,1.5-12.5,4.4-17.2
			c3-4.8,6.9-8.4,11.8-11c4.9-2.5,10.4-3.8,16.2-3.8c4.8,0,8.9,0.8,12.2,2.4c3.3,1.6,5.8,3.6,7.6,6.2s2.6,5.2,2.6,7.9
			c0,2.3-0.7,4.1-2.1,5.4s-3.2,1.9-5.5,1.9c-2.4,0-4.4-0.9-5.8-2.6c-1.5-1.8-2.4-4-2.6-6.8c-0.1-1.8,0-3.4,0.1-4.7
			c0.2-1.3,0.2-2.6,0-3.9c-0.3-1.4-0.8-2.4-1.6-2.8c-0.7-0.4-1.7-0.7-2.9-0.7c-5.1,0-9,2.2-11.8,6.6c-2.8,4.4-4.2,11.4-4.2,21
			c0,8.4,1.6,14.8,4.7,19.2c3.1,4.4,7.9,6.7,14.4,6.7c3.9,0,7-0.7,9.5-2.1c2.4-1.4,4.7-3.5,7-6.4l1.2,1c-2.1,4.9-5.3,8.7-9.6,11.3
			C497.5,97.2,492.5,98.5,486.5,98.5z"/>
		<path class="st3" d="M517.4,96.7v-1.2l1.8-0.5c1.6-0.5,2.8-1.2,3.4-2.2s0.9-2.3,0.9-4v-39c0-1.8-0.3-3-0.9-3.9
			c-0.6-0.9-1.8-1.5-3.4-1.8l-1.8-0.4v-1.2l22.8-7.4l1.2,1.2L541.1,54v34.9c0,1.7,0.3,3,0.9,4c0.6,1,1.7,1.8,3.3,2.2l1.2,0.4v1.2
			L517.4,96.7L517.4,96.7z M532.1,28.5c-2.8,0-5.2-0.9-7.2-2.7s-2.9-4-2.9-6.8c0-2.8,1-5.1,2.9-6.8c2-1.8,4.3-2.6,7.2-2.6
			c2.8,0,5.2,0.9,7.1,2.6c1.9,1.8,2.9,4,2.9,6.8c0,2.7-1,5-2.9,6.8C537.3,27.6,534.9,28.5,532.1,28.5z"/>
		<path class="st3" d="M583.3,35c5.4,0,10,1.1,13.8,3.3c3.8,2.2,6.8,5.2,8.8,9c2,3.8,3,8.1,3,12.9c0,0.9,0,1.8-0.1,2.8
			c-0.1,1-0.2,1.8-0.5,2.6h-37.1c0.1,9,1.7,15.4,4.8,19.4c3.1,4,7.7,5.9,13.9,5.9c4.2,0,7.5-0.7,10.1-2s5-3.3,7.2-5.8l1.2,1.1
			c-2.6,4.6-6,8.1-10.3,10.7c-4.3,2.6-9.4,3.8-15.4,3.8c-5.9,0-11.1-1.3-15.7-3.8s-8.1-6.2-10.7-10.9c-2.6-4.7-3.8-10.4-3.8-16.9
			c0-6.8,1.5-12.6,4.5-17.4c3-4.8,6.8-8.4,11.5-10.9C573.2,36.2,578.1,35,583.3,35z M582.9,37.4c-2.4,0-4.5,0.7-6.2,2.2
			c-1.7,1.4-3,4-4,7.7c-1,3.7-1.5,8.9-1.6,15.6h21.3c0.8-9,0.5-15.6-1-19.5C589.9,39.4,587.1,37.4,582.9,37.4z"/>
	</g>
	<path class="st3" d="M173.6,96.7v-1.2l1.9-0.6c2.8-0.9,4.2-3,4.2-6.1V22.1c0-1.6-0.3-2.9-1-3.7c-0.7-0.8-1.8-1.5-3.5-2l-1.6-0.4
		v-1.2l22.8-5.4l1.5,1.1L197.5,28v60.7c0,3.3,1.4,5.4,4.1,6.2l1.8,0.5v1.2L173.6,96.7L173.6,96.7L173.6,96.7z M219.8,96.7
		l-22.3-31.1l23.1-21.3c1.1-1,1.7-2,1.9-3.2c0.2-1.1-0.5-1.9-2.2-2.4l-2.1-0.6v-1.2h18.6V38l-3.7,1c-1.8,0.6-3.3,1.3-4.4,2
		c-1.1,0.8-2.5,1.9-4,3.3l-14.1,13.2L233,88.4c1.4,1.8,2.7,3.2,3.8,4.2c1.1,1,2.6,1.8,4.4,2.5l0.5,0.2v1.2L219.8,96.7L219.8,96.7
		L219.8,96.7z"/>
	<rect x="179.7" y="27.3" class="st3" width="18.1" height="63.7"/>
</g>
</svg>
