<?xml version="1.0" encoding="utf-8"?>
<!-- Generator: Adobe Illustrator 16.0.0, SVG Export Plug-In . SVG Version: 6.00 Build 0)  -->
<!DOCTYPE svg PUBLIC "-//W3C//DTD SVG 1.1//EN" "http://www.w3.org/Graphics/SVG/1.1/DTD/svg11.dtd">
<svg version="1.1" id="Layer_1" xmlns="http://www.w3.org/2000/svg" xmlns:xlink="http://www.w3.org/1999/xlink" x="0px" y="0px"
	 width="612px" height="136px" viewBox="0 334.5 612 136" enable-background="new 0 334.5 612 136" xml:space="preserve">
<linearGradient id="SVGID_1_" gradientUnits="userSpaceOnUse" x1="121.2505" y1="499.252" x2="1475.252" y2="499.252" gradientTransform="matrix(0.3998 0 0 -0.3998 0.3 645.21)">
	<stop  offset="0.35" style="stop-color:#FFFFFF"/>
	<stop  offset="0.42" style="stop-color:#B3B5B8"/>
	<stop  offset="0.5" style="stop-color:#FFFFFF"/>
</linearGradient>
<rect x="48.774" y="442.496" fill="url(#SVGID_1_)" width="541.317" height="6.236"/>
<g>
	<path fill="#FFFFFF" d="M13.313,461.046c-4.717,0-8.116-0.8-10.195-2.438C1.04,457.008,0,454.89,0,452.33
		c0-2.318,0.839-4.197,2.479-5.597c1.679-1.399,3.598-2.119,5.837-2.119c2.239,0,4.278,0.56,6.117,1.68
		c1.839,1.119,3.238,2.878,4.238,5.277l1.239,2.718c0.56,0.92,1.279,1.24,2.039,0.92c0.799-0.28,1.199-1.6,1.199-3.918v-66.925
		c0-1.919-0.44-3.278-1.319-4.158c-0.879-0.879-2.119-1.479-3.798-1.799l-1.879-0.24v-1.239l23.268-7.356l1.479,1.239l-0.36,17.671
		v34.582c0,5.397-0.24,9.915-0.679,13.554c-0.44,3.638-1.24,6.756-2.359,9.274c-1.12,2.519-2.719,4.878-4.797,7.037
		c-2.919,2.918-6.037,4.997-9.475,6.236C19.87,460.406,16.551,461.046,13.313,461.046z M31.743,362.977
		c-2.838,0-5.197-0.879-7.076-2.678c-1.919-1.799-2.878-4.038-2.878-6.797c0-2.838,0.959-5.117,2.878-6.836
		c1.919-1.759,4.278-2.599,7.076-2.599c2.839,0,5.198,0.879,7.156,2.599c1.959,1.759,2.919,4.038,2.919,6.836
		c0,2.719-0.96,4.998-2.919,6.797C36.941,362.098,34.542,362.977,31.743,362.977z"/>
	<path fill="#FFFFFF" d="M68.204,433.021c-4.797,0-8.875-1.359-12.113-4.118c-3.278-2.718-4.917-6.676-4.917-11.833
		c0-3.918,1.999-7.477,5.957-10.755c3.998-3.278,10.235-5.757,18.791-7.396c1.319-0.239,2.838-0.52,4.478-0.799
		c1.639-0.28,3.398-0.6,5.237-0.92v-9.835c0-5.637-0.68-9.595-2.039-11.874s-3.518-3.438-6.396-3.438
		c-1.999,0-3.558,0.64-4.718,1.919c-1.159,1.279-1.919,3.518-2.239,6.676l-0.24,1.359c-0.16,3.558-1.04,6.197-2.599,7.836
		c-1.559,1.679-3.518,2.479-5.837,2.479c-2.159,0-3.958-0.68-5.357-1.999c-1.399-1.319-2.119-3.118-2.119-5.357
		c0-3.398,1.199-6.277,3.558-8.596s5.477-4.078,9.395-5.237c3.918-1.159,8.116-1.759,12.673-1.759
		c7.396,0,13.073,1.799,17.111,5.397c4.038,3.598,6.037,9.475,6.037,17.591v27.505c0,3.719,1.759,5.598,5.237,5.598h2.719
		l1.119,0.999c-1.559,1.999-3.278,3.519-5.157,4.598s-4.518,1.6-7.916,1.6c-3.638,0-6.517-0.84-8.635-2.559
		c-2.119-1.72-3.518-3.958-4.158-6.797c-2.479,2.639-5.038,4.917-7.636,6.797C75.72,432.102,72.322,433.021,68.204,433.021z
		 M75.8,425.425c1.639,0,3.198-0.4,4.678-1.199c1.439-0.8,3.158-1.999,5.157-3.679v-20.909c-0.839,0.16-1.679,0.32-2.479,0.48
		c-0.84,0.159-1.799,0.319-2.879,0.479c-3.798,0.999-6.876,2.679-9.155,5.037c-2.279,2.359-3.438,5.558-3.438,9.516
		c0,3.397,0.8,5.956,2.359,7.636C71.643,424.585,73.562,425.425,75.8,425.425z"/>
	<path fill="#FFFFFF" d="M145.364,433.021c-5.637,0-10.754-1.239-15.352-3.678c-4.598-2.438-8.276-5.997-10.955-10.715
		c-2.679-4.678-4.038-10.435-4.038-17.23c0-6.717,1.479-12.474,4.438-17.231c2.958-4.757,6.876-8.436,11.834-10.954
		c4.917-2.519,10.354-3.798,16.231-3.798c4.797,0,8.875,0.799,12.193,2.358c3.318,1.56,5.837,3.638,7.596,6.157
		c1.759,2.519,2.599,5.157,2.599,7.916c0,2.319-0.72,4.118-2.119,5.397c-1.399,1.279-3.238,1.919-5.478,1.919
		c-2.398,0-4.357-0.88-5.837-2.599c-1.479-1.759-2.358-4.038-2.599-6.836c-0.08-1.839-0.04-3.398,0.12-4.678
		c0.16-1.279,0.16-2.599,0-3.918c-0.32-1.399-0.839-2.359-1.559-2.798c-0.72-0.44-1.679-0.68-2.918-0.68
		c-5.078,0-8.996,2.199-11.754,6.596c-2.799,4.398-4.158,11.395-4.158,21.029c0,8.396,1.559,14.792,4.677,19.229
		c3.119,4.438,7.916,6.677,14.393,6.677c3.918,0,7.036-0.72,9.475-2.119c2.399-1.398,4.717-3.518,6.957-6.356l1.239,1
		c-2.079,4.877-5.277,8.675-9.595,11.313C156.318,431.701,151.241,433.021,145.364,433.021z"/>
	<path fill="#FFFFFF" d="M173.589,431.182v-1.239l1.879-0.64c2.838-0.92,4.238-2.959,4.238-6.117v-66.565
		c0-1.639-0.32-2.918-1-3.718c-0.68-0.839-1.839-1.479-3.478-1.999l-1.599-0.359v-1.24l22.788-5.357l1.479,1.119l-0.4,17.391v60.728
		c0,3.318,1.359,5.397,4.118,6.237l1.759,0.479v1.239h-29.784V431.182z M219.765,431.182l-22.269-31.144l23.148-21.269
		c1.08-1,1.719-2.039,1.919-3.158c0.2-1.12-0.52-1.919-2.159-2.439l-2.119-0.64v-1.239h18.55v1.239l-3.718,1
		c-1.839,0.6-3.278,1.279-4.438,2.039c-1.12,0.799-2.479,1.879-4.038,3.278l-14.073,13.193l22.388,30.864
		c1.399,1.839,2.679,3.238,3.798,4.237c1.119,1,2.599,1.839,4.438,2.479l0.48,0.24v1.239h-21.909V431.182z"/>
	<path fill="#FFFFFF" d="M300.003,409.633c-5.717,0-10.594-0.959-14.552-2.879v4.238c0,2.559,1.279,4.118,3.838,4.598l23.388,4.357
		c3.918,0.76,7.436,1.72,10.594,2.919c3.159,1.199,5.678,2.918,7.597,5.117c1.919,2.198,2.878,5.197,2.878,9.035
		c0,4.078-1.319,7.836-3.997,11.274c-2.639,3.438-6.557,6.236-11.754,8.355s-11.635,3.158-19.351,3.158
		c-6.636,0-11.914-0.68-15.792-2.039c-3.918-1.359-6.676-3.118-8.276-5.277c-1.599-2.158-2.438-4.438-2.438-6.836
		c0-2.999,1-5.997,3.039-9.035c2.039-3.039,4.558-5.438,7.516-7.276c-2.559-1-4.438-2.279-5.597-3.838
		c-1.16-1.56-1.759-3.278-1.759-5.118c0-1.639,0.44-3.198,1.319-4.677c0.879-1.439,1.919-2.919,3.158-4.438l4.118-5.236
		c-6.037-3.479-9.075-8.956-9.075-16.432c0-5.957,2.119-10.834,6.396-14.553c4.278-3.718,10.555-5.597,18.87-5.597
		c4.238,0,7.956,0.479,11.154,1.479s5.837,2.399,7.916,4.238c2.639-0.4,5.157-1.08,7.516-2.039c2.359-0.959,4.518-2.279,6.396-3.918
		l1.76,1.239v6.357h-14.073c2.999,3.318,4.478,7.596,4.478,12.833c0,5.797-2.118,10.594-6.396,14.393
		C314.596,407.754,308.318,409.633,300.003,409.633z M281.373,441.616c0,4.877,1.519,8.596,4.558,11.074
		c3.038,2.479,7.836,3.718,14.392,3.718c6.876,0,12.074-1.119,15.552-3.358c3.479-2.238,5.237-5.396,5.237-9.475
		c0-2.319-0.84-4.198-2.559-5.597c-1.72-1.399-4.598-2.479-8.636-3.239l-22.508-4.237c-0.68-0.16-1.319-0.32-1.999-0.479
		c-1.159,1.639-2.119,3.558-2.878,5.677S281.373,439.777,281.373,441.616z M299.883,407.154c3.318,0,5.757-1.359,7.276-4.118
		c1.52-2.719,2.319-7.316,2.319-13.673c0-6.396-0.76-10.874-2.319-13.513c-1.519-2.599-3.878-3.918-7.036-3.918
		c-3.078,0-5.397,1.359-6.957,4.038c-1.559,2.678-2.358,7.236-2.358,13.633c0,6.396,0.719,10.914,2.159,13.553
		C294.446,405.835,296.725,407.154,299.883,407.154z"/>
	<path fill="#FFFFFF" d="M338.982,431.182v-1.239l1.879-0.479c1.64-0.48,2.799-1.24,3.438-2.239s0.92-2.278,0.92-3.838v-38.94
		c0-1.839-0.32-3.158-0.92-4.038s-1.759-1.479-3.438-1.799l-1.879-0.479v-1.239l21.389-7.236l1.24,1.239l1.119,10.714v1
		c1.159-2.319,2.679-4.478,4.558-6.396c1.879-1.959,3.958-3.558,6.236-4.797c2.279-1.24,4.558-1.879,6.797-1.879
		c3.158,0,5.557,0.88,7.236,2.599c1.639,1.759,2.479,3.958,2.479,6.597c0,2.838-0.8,4.998-2.438,6.517
		c-1.6,1.519-3.559,2.319-5.797,2.319c-3.479,0-6.557-1.759-9.195-5.237l-0.24-0.24c-0.84-1.16-1.799-1.799-2.879-1.919
		c-1.079-0.12-2.078,0.399-2.998,1.559c-0.84,0.759-1.52,1.639-2.039,2.679c-0.56,1.039-1.039,2.239-1.559,3.558v34.702
		c0,3.318,1.438,5.397,4.357,6.236l3.998,1.12v1.239h-32.264V431.182z"/>
	<path fill="#FFFFFF" d="M409.386,433.021c-4.797,0-8.875-1.359-12.113-4.118c-3.278-2.718-4.918-6.676-4.918-11.833
		c0-3.918,1.999-7.477,5.957-10.755c3.998-3.278,10.235-5.757,18.79-7.396c1.319-0.239,2.839-0.52,4.478-0.799
		c1.64-0.28,3.398-0.6,5.237-0.92v-9.835c0-5.637-0.68-9.595-2.038-11.874c-1.359-2.279-3.519-3.438-6.397-3.438
		c-1.999,0-3.558,0.64-4.717,1.919c-1.16,1.279-1.919,3.518-2.239,6.676l-0.24,1.359c-0.159,3.558-1.039,6.197-2.599,7.836
		c-1.559,1.679-3.518,2.479-5.837,2.479c-2.158,0-3.958-0.68-5.356-1.999c-1.399-1.319-2.119-3.118-2.119-5.357
		c0-3.398,1.199-6.277,3.558-8.596c2.359-2.319,5.478-4.078,9.396-5.237c3.918-1.159,8.115-1.759,12.674-1.759
		c7.396,0,13.072,1.799,17.11,5.397s6.037,9.475,6.037,17.591v27.505c0,3.719,1.759,5.598,5.237,5.598h2.719l1.119,0.999
		c-1.56,1.999-3.278,3.519-5.157,4.598s-4.518,1.6-7.916,1.6c-3.638,0-6.517-0.84-8.636-2.559c-2.118-1.72-3.518-3.958-4.157-6.797
		c-2.479,2.639-5.037,4.917-7.636,6.797C416.942,432.102,413.544,433.021,409.386,433.021z M416.982,425.425
		c1.639,0,3.198-0.4,4.677-1.199c1.439-0.8,3.158-1.999,5.157-3.679v-20.909c-0.839,0.16-1.679,0.32-2.479,0.48
		c-0.839,0.159-1.799,0.319-2.878,0.479c-3.798,0.999-6.877,2.679-9.155,5.037c-2.279,2.359-3.438,5.558-3.438,9.516
		c0,3.397,0.8,5.956,2.358,7.636C412.864,424.585,414.743,425.425,416.982,425.425z"/>
	<path fill="#FFFFFF" d="M486.546,433.021c-5.638,0-10.755-1.239-15.353-3.678s-8.275-5.997-10.954-10.715
		c-2.679-4.678-4.038-10.435-4.038-17.23c0-6.717,1.479-12.474,4.398-17.231c2.958-4.757,6.876-8.436,11.833-10.954
		c4.918-2.519,10.354-3.798,16.231-3.798c4.798,0,8.876,0.799,12.194,2.358c3.318,1.56,5.837,3.638,7.596,6.157
		c1.759,2.519,2.599,5.157,2.599,7.916c0,2.319-0.72,4.118-2.119,5.397c-1.399,1.279-3.238,1.919-5.477,1.919
		c-2.399,0-4.358-0.88-5.837-2.599c-1.479-1.759-2.359-4.038-2.599-6.836c-0.08-1.839-0.04-3.398,0.119-4.678
		c0.16-1.279,0.16-2.599,0-3.918c-0.319-1.399-0.839-2.359-1.559-2.798c-0.72-0.44-1.68-0.68-2.919-0.68
		c-5.077,0-8.995,2.199-11.754,6.596c-2.798,4.398-4.157,11.395-4.157,21.029c0,8.396,1.559,14.792,4.678,19.229
		c3.118,4.438,7.915,6.677,14.392,6.677c3.918,0,7.037-0.72,9.476-2.119c2.398-1.398,4.718-3.518,6.956-6.356l1.239,1
		c-2.079,4.877-5.277,8.675-9.595,11.313C497.54,431.701,492.463,433.021,486.546,433.021z"/>
	<path fill="#FFFFFF" d="M517.409,431.182v-1.239l1.76-0.479c1.639-0.48,2.798-1.24,3.438-2.239s0.92-2.318,0.92-3.998v-38.979
		c0-1.759-0.32-3.039-0.92-3.918c-0.64-0.879-1.759-1.479-3.438-1.799l-1.76-0.36v-1.239l22.788-7.356l1.239,1.239l-0.359,17.671
		v34.862c0,1.679,0.319,2.998,0.919,3.998c0.641,0.999,1.72,1.759,3.278,2.238l1.239,0.36v1.239H517.409z M532.082,362.977
		c-2.839,0-5.197-0.879-7.156-2.678c-1.959-1.799-2.919-4.038-2.919-6.797c0-2.838,0.96-5.117,2.919-6.836
		c1.959-1.759,4.317-2.599,7.156-2.599c2.838,0,5.197,0.879,7.076,2.599c1.919,1.759,2.878,4.038,2.878,6.836
		c0,2.719-0.959,4.998-2.878,6.797C537.279,362.098,534.92,362.977,532.082,362.977z"/>
	<path fill="#FFFFFF" d="M583.255,369.454c5.397,0,9.995,1.119,13.793,3.278c3.798,2.199,6.757,5.198,8.755,8.956
		c2.039,3.758,3.039,8.076,3.039,12.873c0,0.92-0.04,1.839-0.12,2.799c-0.08,0.959-0.24,1.799-0.479,2.559h-37.101
		c0.08,8.955,1.679,15.392,4.797,19.35c3.119,3.958,7.716,5.917,13.873,5.917c4.158,0,7.517-0.68,10.075-1.999
		s4.997-3.278,7.235-5.837l1.239,1.119c-2.559,4.558-5.996,8.116-10.274,10.715c-4.277,2.559-9.395,3.838-15.352,3.838
		c-5.877,0-11.114-1.279-15.672-3.798s-8.116-6.157-10.715-10.874c-2.559-4.718-3.838-10.354-3.838-16.911
		c0-6.797,1.479-12.594,4.478-17.351c2.999-4.758,6.837-8.396,11.515-10.875C573.181,370.693,578.098,369.454,583.255,369.454z
		 M582.855,371.933c-2.399,0-4.478,0.72-6.157,2.159c-1.719,1.439-3.038,4.038-3.998,7.716c-0.959,3.678-1.479,8.915-1.559,15.632
		h21.269c0.84-9.036,0.479-15.552-0.999-19.55C589.932,373.892,587.093,371.933,582.855,371.933z"/>
</g>
<path fill="#FFFFFF" d="M173.589,431.182v-1.239l1.879-0.64c2.838-0.92,4.238-2.959,4.238-6.117v-66.565c0-1.639-0.32-2.918-1-3.718
	c-0.68-0.839-1.839-1.479-3.478-1.999l-1.599-0.359v-1.24l22.788-5.357l1.479,1.119l-0.4,17.391v60.728
	c0,3.318,1.359,5.397,4.118,6.237l1.759,0.479v1.239h-29.784V431.182z M219.765,431.182l-22.269-31.144l23.148-21.269
	c1.08-1,1.719-2.039,1.919-3.158c0.2-1.12-0.52-1.919-2.159-2.439l-2.119-0.64v-1.239h18.55v1.239l-3.718,1
	c-1.839,0.6-3.278,1.279-4.438,2.039c-1.12,0.799-2.479,1.879-4.038,3.278l-14.073,13.193l22.388,30.864
	c1.399,1.839,2.679,3.238,3.798,4.237c1.119,1,2.599,1.839,4.438,2.479l0.48,0.24v1.239h-21.909V431.182z"/>
<rect x="179.706" y="361.833" fill="#FFFFFF" width="18.079" height="63.722"/>
</svg>
