<?xml version="1.0" encoding="utf-8"?>
<!-- Generator: Adobe Illustrator 16.0.0, SVG Export Plug-In . SVG Version: 6.00 Build 0)  -->
<!DOCTYPE svg PUBLIC "-//W3C//DTD SVG 1.1//EN" "http://www.w3.org/Graphics/SVG/1.1/DTD/svg11.dtd">
<svg version="1.1" id="Layer_1" xmlns="http://www.w3.org/2000/svg" xmlns:xlink="http://www.w3.org/1999/xlink" x="0px" y="0px"
	 width="612px" height="136px" viewBox="0 0 612 136" enable-background="new 0 0 612 136" xml:space="preserve">
<linearGradient id="SVGID_1_" gradientUnits="userSpaceOnUse" x1="9.7544" y1="-53.4888" x2="1520.5098" y2="-53.4888" gradientTransform="matrix(0.3998 0 0 0.3998 0.6 132.0029)">
	<stop  offset="0.8771" style="stop-color:#FFFFFF"/>
	<stop  offset="0.9028" style="stop-color:#B3B5B8"/>
	<stop  offset="0.9532" style="stop-color:#FFFFFF"/>
</linearGradient>
<rect x="4.5" y="107.5" fill="url(#SVGID_1_)" width="604" height="6.236"/>
<g>
	<path fill="#FFFFFF" d="M29.252,100.809L7.21,39.421c-0.481-1.373-1.117-2.454-1.905-3.244c-0.791-0.789-1.872-1.391-3.245-1.803
		l-2.472-0.824v-1.03h29.664v1.03l-3.193,0.927c-1.581,0.412-2.456,1.134-2.626,2.163c-0.172,1.03-0.018,2.302,0.463,3.812
		L39.14,85.668l15.347-45.32c0.549-1.578,0.807-2.884,0.772-3.914c-0.035-1.029-0.841-1.751-2.42-2.162l-2.678-0.722v-1.03h14.42
		v1.03L61.8,34.374c-1.305,0.345-2.232,0.944-2.781,1.803c-0.55,0.859-1.065,1.975-1.545,3.348l-20.6,61.284H29.252z"/>
	<path fill="#FFFFFF" d="M63.653,100.5v-1.03l1.442-0.412c1.373-0.411,2.317-1.029,2.833-1.854s0.772-1.922,0.772-3.296V61.669
		c0-1.442-0.257-2.523-0.772-3.244c-0.515-0.722-1.46-1.219-2.833-1.494l-1.442-0.309v-1.03l18.849-6.077l1.03,1.03l-0.309,14.626
		v28.84c0,1.375,0.257,2.473,0.772,3.296c0.515,0.824,1.424,1.442,2.729,1.854l1.03,0.309v1.03H63.653z M75.807,44.056
		c-2.335,0-4.31-0.736-5.922-2.214c-1.614-1.477-2.42-3.348-2.42-5.614c0-2.333,0.806-4.223,2.42-5.664
		c1.612-1.442,3.587-2.163,5.922-2.163c2.333,0,4.291,0.721,5.871,2.163c1.579,1.441,2.369,3.331,2.369,5.664
		c0,2.267-0.791,4.138-2.369,5.614C80.098,43.319,78.141,44.056,75.807,44.056z"/>
	<path fill="#FFFFFF" d="M114.123,102.045c-4.052,0-7.691-0.911-10.918-2.729c-3.229-1.818-5.786-4.635-7.673-8.446
		c-1.89-3.811-2.833-8.703-2.833-14.677c0-6.042,1.063-11.037,3.193-14.987c2.127-3.947,4.944-6.9,8.446-8.857
		s7.313-2.936,11.433-2.936c2.403,0,4.703,0.241,6.901,0.721c2.197,0.481,4.154,1.202,5.871,2.163v-13.39
		c0-1.442-0.224-2.506-0.669-3.193c-0.447-0.686-1.391-1.167-2.833-1.441l-1.957-0.412v-1.03l18.746-4.532l1.133,0.927l-0.412,14.42
		v50.367c0,1.375,0.24,2.49,0.721,3.348c0.479,0.859,1.373,1.46,2.678,1.803l0.927,0.309v1.03l-17.613,1.133l-0.927-3.708
		c-1.854,1.236-3.965,2.232-6.334,2.987C119.634,101.667,117.007,102.045,114.123,102.045z M120.097,98.234
		c2.884,0,5.526-0.858,7.931-2.575V54.768c-2.541-1.647-5.15-2.472-7.828-2.472c-3.296,0-6.113,1.905-8.446,5.717
		c-2.335,3.811-3.502,9.803-3.502,17.974c0,8.172,1.098,13.923,3.296,17.252C113.745,96.57,116.595,98.234,120.097,98.234z"/>
	<path fill="#FFFFFF" d="M177.261,49.412c4.463,0,8.274,0.911,11.433,2.729c3.157,1.82,5.578,4.292,7.261,7.416
		c1.682,3.125,2.523,6.679,2.523,10.66c0,0.757-0.035,1.529-0.103,2.317c-0.069,0.791-0.206,1.494-0.412,2.112H167.27
		c0.068,7.416,1.391,12.756,3.966,16.016c2.575,3.263,6.402,4.893,11.484,4.893c3.433,0,6.214-0.549,8.343-1.647
		c2.128-1.098,4.12-2.712,5.974-4.841l1.03,0.927c-2.129,3.777-4.962,6.73-8.498,8.857c-3.538,2.128-7.777,3.193-12.721,3.193
		c-4.876,0-9.202-1.048-12.978-3.142c-3.777-2.094-6.73-5.099-8.858-9.013c-2.129-3.914-3.193-8.582-3.193-14.008
		c0-5.63,1.236-10.419,3.708-14.368c2.472-3.948,5.647-6.953,9.527-9.013C168.934,50.442,173.003,49.412,177.261,49.412z
		 M176.952,51.472c-1.992,0-3.692,0.603-5.099,1.803c-1.408,1.202-2.507,3.331-3.296,6.386c-0.79,3.057-1.22,7.365-1.288,12.927
		h17.613c0.686-7.483,0.412-12.875-0.824-16.171S180.454,51.472,176.952,51.472z"/>
	<path fill="#FFFFFF" d="M229.687,102.045c-5.219,0-9.751-1.081-13.596-3.244c-3.846-2.163-6.815-5.235-8.91-9.219
		c-2.095-3.981-3.141-8.652-3.141-14.008c0-5.356,1.115-9.991,3.347-13.905c2.231-3.914,5.287-6.935,9.167-9.063
		c3.879-2.128,8.256-3.193,13.133-3.193c4.875,0,9.234,1.048,13.081,3.142c3.845,2.095,6.883,5.099,9.115,9.013
		c2.23,3.914,3.348,8.584,3.348,14.008c0,5.425-1.048,10.111-3.142,14.06c-2.095,3.949-5.047,7.004-8.858,9.167
		S234.904,102.045,229.687,102.045z M229.687,99.985c2.403,0,4.326-0.686,5.768-2.061c1.442-1.373,2.488-3.811,3.141-7.313
		c0.652-3.502,0.979-8.446,0.979-14.832c0-6.454-0.327-11.434-0.979-14.936c-0.653-3.502-1.699-5.938-3.141-7.313
		c-1.442-1.373-3.365-2.061-5.768-2.061c-2.405,0-4.344,0.688-5.82,2.061c-1.477,1.374-2.541,3.811-3.193,7.313
		c-0.653,3.502-0.979,8.481-0.979,14.936c0,6.386,0.325,11.33,0.979,14.832c0.652,3.502,1.716,5.939,3.193,7.313
		C225.343,99.3,227.282,99.985,229.687,99.985z"/>
	<path fill="#FFFFFF" d="M282.421,100.5v-1.03l2.369-0.927c1.167-0.479,1.973-1.115,2.421-1.905c0.446-0.789,0.669-1.87,0.669-3.245
		V39.627c0-1.373-0.19-2.454-0.566-3.244c-0.378-0.789-1.22-1.425-2.524-1.906l-2.369-0.927v-1.03h49.336l0.618,15.862h-1.029
		l-4.43-9.682c-0.618-1.236-1.271-2.23-1.957-2.987c-0.687-0.755-1.717-1.133-3.09-1.133h-18.54v29.767h11.021
		c1.372,0,2.42-0.36,3.142-1.081c0.721-0.721,1.354-1.699,1.905-2.936l2.06-4.12h1.03v18.54h-1.03l-2.06-4.326
		c-0.618-1.235-1.271-2.214-1.957-2.936c-0.688-0.721-1.718-1.081-3.09-1.081H303.33V98.44h20.807c1.372,0,2.437-0.361,3.192-1.082
		c0.755-0.721,1.373-1.733,1.854-3.038l4.223-9.683h1.03l-0.618,15.862H282.421z"/>
	<path fill="#FFFFFF" d="M360.599,102.045c-4.053,0-7.691-0.911-10.919-2.729s-5.785-4.635-7.673-8.446
		c-1.89-3.811-2.833-8.703-2.833-14.677c0-6.042,1.064-11.037,3.193-14.987c2.128-3.947,4.944-6.9,8.446-8.857
		s7.313-2.936,11.433-2.936c2.403,0,4.703,0.241,6.901,0.721c2.196,0.481,4.153,1.202,5.871,2.163v-13.39
		c0-1.442-0.224-2.506-0.67-3.193c-0.447-0.686-1.391-1.167-2.832-1.441l-1.957-0.412v-1.03l18.745-4.532l1.134,0.927l-0.412,14.42
		v50.367c0,1.375,0.239,2.49,0.721,3.348c0.479,0.859,1.373,1.46,2.678,1.803l0.928,0.309v1.03l-17.613,1.133l-0.927-3.708
		c-1.854,1.236-3.966,2.232-6.335,2.987S363.482,102.045,360.599,102.045z M366.572,98.234c2.884,0,5.526-0.858,7.931-2.575V54.768
		c-2.541-1.647-5.149-2.472-7.828-2.472c-3.296,0-6.112,1.905-8.445,5.717c-2.336,3.811-3.502,9.803-3.502,17.974
		c0,8.172,1.098,13.923,3.296,17.252C360.22,96.57,363.07,98.234,366.572,98.234z"/>
	<path fill="#FFFFFF" d="M398.089,100.5v-1.03l1.442-0.412c1.373-0.411,2.317-1.029,2.832-1.854
		c0.516-0.824,0.773-1.922,0.773-3.296V61.669c0-1.442-0.258-2.523-0.773-3.244c-0.515-0.722-1.459-1.219-2.832-1.494l-1.442-0.309
		v-1.03l18.85-6.077l1.029,1.03l-0.309,14.626v28.84c0,1.375,0.258,2.473,0.772,3.296c0.515,0.824,1.425,1.442,2.729,1.854
		l1.03,0.309v1.03H398.089z M410.243,44.056c-2.335,0-4.31-0.736-5.923-2.214c-1.614-1.477-2.42-3.348-2.42-5.614
		c0-2.333,0.806-4.223,2.42-5.664c1.613-1.442,3.588-2.163,5.923-2.163c2.334,0,4.291,0.721,5.871,2.163
		c1.579,1.441,2.369,3.331,2.369,5.664c0,2.267-0.79,4.138-2.369,5.614C414.534,43.319,412.577,44.056,410.243,44.056z"/>
	<path fill="#FFFFFF" d="M446.293,102.045c-4.396,0-7.812-1.1-10.248-3.296c-2.438-2.197-3.657-5.699-3.657-10.506V53.017h-7.106
		v-1.029l2.472-0.412c2.128-0.479,3.966-1.167,5.511-2.061c1.545-0.892,3.072-2.094,4.583-3.604l8.446-9.373h1.03l-0.31,14.42
		h11.536v2.06h-11.639v37.08c0,2.404,0.531,4.224,1.597,5.459c1.063,1.236,2.42,1.854,4.068,1.854c1.442,0,2.712-0.36,3.811-1.082
		c1.098-0.721,2.197-1.699,3.296-2.936l1.03,1.03c-1.374,2.335-3.262,4.189-5.665,5.563
		C452.644,101.357,449.726,102.045,446.293,102.045z"/>
	<path fill="#FFFFFF" d="M464.11,100.5v-1.03l1.442-0.412c1.373-0.411,2.317-1.029,2.832-1.854c0.516-0.824,0.773-1.922,0.773-3.296
		V61.669c0-1.442-0.258-2.523-0.773-3.244c-0.515-0.722-1.459-1.219-2.832-1.494l-1.442-0.309v-1.03l18.85-6.077l1.029,1.03
		l-0.309,14.626v28.84c0,1.375,0.258,2.473,0.772,3.296c0.515,0.824,1.425,1.442,2.729,1.854l1.03,0.309v1.03H464.11z
		 M476.265,44.056c-2.335,0-4.31-0.736-5.923-2.214c-1.614-1.477-2.42-3.348-2.42-5.614c0-2.333,0.806-4.223,2.42-5.664
		c1.613-1.442,3.588-2.163,5.923-2.163c2.334,0,4.291,0.721,5.871,2.163c1.579,1.441,2.369,3.331,2.369,5.664
		c0,2.267-0.79,4.138-2.369,5.614C480.556,43.319,478.599,44.056,476.265,44.056z"/>
	<path fill="#FFFFFF" d="M492.744,100.5v-1.03l1.442-0.412c2.403-0.686,3.605-2.368,3.605-5.047V61.772
		c0-1.51-0.242-2.627-0.722-3.348c-0.48-0.722-1.408-1.219-2.78-1.494l-1.546-0.412v-1.029l17.613-5.975l1.03,1.03l0.824,6.18
		c2.402-2.127,5.114-3.878,8.137-5.253c3.021-1.372,6.008-2.06,8.961-2.06c4.532,0,8.017,1.236,10.454,3.708
		c2.437,2.472,3.657,6.249,3.657,11.33v29.664c0,2.678,1.304,4.361,3.914,5.047l0.927,0.309v1.03h-24.309v-1.03l1.34-0.412
		c2.402-0.755,3.604-2.437,3.604-5.047V61.154c0-4.394-2.198-6.593-6.592-6.593c-3.022,0-6.318,1.512-9.888,4.532v35.021
		c0,2.678,1.2,4.361,3.604,5.047l0.927,0.309v1.03H492.744z"/>
	<path fill="#FFFFFF" d="M574.731,82.681c-4.737,0-8.755-0.788-12.051-2.369v3.503c0,2.129,1.063,3.398,3.193,3.811l19.363,3.605
		c3.228,0.617,6.146,1.426,8.756,2.42c2.608,0.996,4.702,2.404,6.282,4.223c1.579,1.82,2.369,4.309,2.369,7.468
		c0,3.364-1.099,6.472-3.296,9.321c-2.198,2.849-5.442,5.15-9.733,6.901c-4.292,1.751-9.631,2.627-16.017,2.627
		c-5.494,0-9.854-0.567-13.081-1.7c-3.229-1.133-5.511-2.593-6.85-4.377c-1.339-1.787-2.008-3.675-2.008-5.665
		c0-2.473,0.84-4.962,2.523-7.468c1.682-2.508,3.759-4.515,6.231-6.025c-2.13-0.824-3.675-1.888-4.636-3.193
		c-0.962-1.304-1.441-2.712-1.441-4.223c0-1.373,0.36-2.66,1.081-3.862c0.722-1.201,1.597-2.421,2.627-3.657l3.398-4.325
		c-5.013-2.885-7.519-7.416-7.519-13.597c0-4.943,1.767-8.961,5.305-12.051c3.535-3.09,8.737-4.635,15.604-4.635
		c3.502,0,6.574,0.412,9.219,1.236c2.643,0.823,4.823,1.992,6.54,3.502c2.197-0.343,4.274-0.91,6.231-1.7
		c1.957-0.788,3.725-1.87,5.305-3.244l1.441,1.03v5.253h-11.639c2.472,2.747,3.708,6.283,3.708,10.608
		c0,4.808-1.769,8.773-5.305,11.896C586.799,81.12,581.598,82.681,574.731,82.681z M559.282,109.152
		c0,4.051,1.252,7.106,3.759,9.167c2.506,2.06,6.472,3.09,11.896,3.09c5.699,0,9.991-0.927,12.875-2.781
		c2.884-1.854,4.326-4.464,4.326-7.828c0-1.923-0.705-3.468-2.111-4.635c-1.408-1.168-3.795-2.06-7.158-2.678l-18.644-3.502
		c-0.55-0.137-1.099-0.274-1.647-0.412c-0.963,1.372-1.751,2.936-2.369,4.687S559.282,107.641,559.282,109.152z M574.629,80.621
		c2.745,0,4.754-1.133,6.025-3.399c1.27-2.266,1.905-6.041,1.905-11.33c0-5.286-0.636-9.012-1.905-11.175
		c-1.271-2.163-3.211-3.245-5.819-3.245c-2.541,0-4.465,1.117-5.769,3.348c-1.305,2.232-1.957,5.992-1.957,11.278
		c0,5.289,0.601,9.03,1.803,11.228C570.113,79.523,572.019,80.621,574.629,80.621z"/>
</g>
</svg>
